<svg xmlns="http://www.w3.org/2000/svg" width="18" height="16" fill="none"><path fill="#000" fill-rule="evenodd" d="m13.894 11.072 3.777 3.56a.427.427 0 0 1-.019.613l-.66.623a.487.487 0 0 1-.336.132.487.487 0 0 1-.335-.132l-3.777-3.56a2.342 2.342 0 0 1-.283-.32l-.709-.89a6.868 6.868 0 0 1-4.126 1.362c-3.09.01-5.775-1.999-6.466-4.838-.69-2.838.798-5.75 3.584-7.009C7.33-.647 10.67.081 12.587 2.366c1.917 2.284 1.9 5.515-.043 7.78l.944.614c.148.089.284.194.406.312ZM2.705 6.23c0 2.458 2.114 4.45 4.721 4.45a4.871 4.871 0 0 0 3.339-1.303 4.324 4.324 0 0 0 1.383-3.147c0-2.457-2.114-4.45-4.722-4.45-2.607 0-4.72 1.993-4.72 4.45Z" clip-rule="evenodd"/></svg>