<svg xmlns="http://www.w3.org/2000/svg">
<symbol id='facebook' viewBox="0 0 200 40" fill="none">
  <path d="M102.964 19.4275C101.313 19.4275 100.123 19.9747 98.9156 20.5323V33.1472C100.072 33.2585 100.735 33.2585 101.831 33.2585C105.795 33.2585 106.339 31.4242 106.339 28.863V22.838C106.339 20.9466 105.717 19.4275 102.964 19.4275ZM76.64 18.7391C73.8898 18.7391 73.2621 20.2647 73.2621 22.1543V23.2159H80.0141V22.1543C80.0141 20.2647 79.3865 18.7391 76.64 18.7391ZM25.6442 31.8694C25.6442 33.3642 26.3421 34.1406 27.8825 34.1406C29.5348 34.1406 30.5132 33.5962 31.7194 33.0368V30.0444H28.1065C26.3958 30.0444 25.6442 30.3662 25.6442 31.8694ZM128.572 19.4275C125.817 19.4275 124.862 20.9466 124.862 22.838V29.7404C124.862 31.6365 125.817 33.1603 128.572 33.1603C131.319 33.1603 132.281 31.6365 132.281 29.7404V22.838C132.28 20.9466 131.318 19.4275 128.572 19.4275ZM12.144 39.609H4.04615V19.8026H0V12.9779H4.04708V8.87891C4.04708 3.31042 6.33073 0 12.8216 0H18.2257V6.82662H14.8479C12.3208 6.82662 12.1542 7.78074 12.1542 9.56083L12.144 12.9769H18.2628L17.5472 19.8017H12.144V39.609ZM39.8191 39.6604H33.07L32.7784 37.9356C29.6968 39.6605 26.9466 39.9401 25.1323 39.9401C20.1826 39.9401 17.5481 36.5989 17.5481 31.9779C17.5481 26.5264 20.6223 24.5807 26.1218 24.5807H31.7194V23.4021C31.7194 20.6192 31.4037 19.8026 27.1688 19.8026H20.2447L20.9213 12.9779H28.4897C37.7817 12.9779 39.8191 15.9441 39.8191 23.4573V39.6604ZM62.7695 20.3031C58.5697 19.5753 57.3636 19.4154 55.3428 19.4154C51.7132 19.4154 50.6163 20.2245 50.6163 23.3394V29.2316C50.6163 32.3465 51.7132 33.1594 55.3428 33.1594C57.3636 33.1594 58.5697 32.9966 62.7695 32.266V38.9234C59.0909 39.7568 56.6943 39.9757 54.6689 39.9757C45.9749 39.9757 42.5193 35.3557 42.5193 28.6815V23.9007C42.5193 17.2209 45.9749 12.5925 54.6689 12.5925C56.6943 12.5925 59.0909 12.8123 62.7695 13.6495V20.3031ZM88.111 28.6815H73.2612V29.2316C73.2612 32.3465 74.3591 33.1594 77.9877 33.1594C81.2498 33.1594 83.241 32.9966 87.4334 32.266V38.9234C83.39 39.7568 81.2832 39.9757 77.3166 39.9757C68.6217 39.9757 65.1643 35.3557 65.1643 28.6815V23.215C65.1643 17.3752 67.7293 12.5925 76.639 12.5925C85.5487 12.5925 88.111 17.3201 88.111 23.215V28.6815ZM114.435 28.8078C114.435 35.2584 112.61 39.9635 101.557 39.9635C97.5659 39.9635 95.2249 39.609 90.8195 38.9243V2.05042L98.9146 0.685657V13.584C100.664 12.9274 102.928 12.5934 104.989 12.5934C113.085 12.5934 114.434 16.2612 114.434 22.1552V28.8078H114.435ZM140.384 28.9481C140.384 34.5129 138.111 39.9102 128.598 39.9102C119.082 39.9102 116.765 34.5129 116.765 28.9481V23.5751C116.765 18.0076 119.082 12.6093 128.598 12.6093C138.111 12.6093 140.384 18.0076 140.384 23.5751V28.9481ZM166.316 28.9481C166.316 34.5129 164.04 39.9102 154.53 39.9102C145.013 39.9102 142.697 34.5129 142.697 28.9481V23.5751C142.697 18.0076 145.013 12.6093 154.53 12.6093C164.04 12.6093 166.316 18.0076 166.316 23.5751V28.9481ZM192.929 39.609H184.154L176.733 27.0904V39.609H168.635V2.04948L176.733 0.68472V24.8641L184.154 12.9779H192.929L184.827 25.9492L192.929 39.609ZM154.502 19.4275C151.752 19.4275 150.797 20.9466 150.797 22.838V29.7404C150.797 31.6365 151.752 33.1603 154.502 33.1603C157.248 33.1603 158.22 31.6365 158.22 29.7404V22.838C158.22 20.9466 157.248 19.4275 154.502 19.4275ZM197.551 34.9376C198.914 34.9376 200 36.061 200 37.4641C200 38.8887 198.913 40 197.54 40C196.174 40 195.066 38.8887 195.066 37.4641C195.066 36.061 196.174 34.9376 197.54 34.9376H197.551ZM197.54 35.3304C196.442 35.3304 195.543 36.2855 195.543 37.4641C195.543 38.6642 196.443 39.6071 197.551 39.6071C198.66 39.6184 199.545 38.6642 199.545 37.4753C199.545 36.2864 198.66 35.3304 197.551 35.3304H197.54ZM197.075 38.9346H196.63V36.1152C196.864 36.0825 197.086 36.0498 197.419 36.0498C197.841 36.0498 198.117 36.1396 198.287 36.2621C198.45 36.3865 198.538 36.5764 198.538 36.8449C198.538 37.2172 198.296 37.4407 197.997 37.5315V37.553C198.24 37.5988 198.406 37.8214 198.462 38.2358C198.527 38.6745 198.595 38.842 198.638 38.9336H198.173C198.107 38.842 198.039 38.5847 197.984 38.2134C197.919 37.8551 197.739 37.7204 197.384 37.7204H197.076V38.9346H197.075ZM197.075 37.3743H197.397C197.762 37.3743 198.072 37.2387 198.072 36.8898C198.072 36.6428 197.896 36.3968 197.397 36.3968C197.252 36.3968 197.151 36.408 197.075 36.4183V37.3743Z" fill="black"/>
<symbol>
<symbol id='instagram' viewBox="0 0 200 58" fill="none">
  <path d="M10.2957 0.695277C6.22571 2.42977 1.69784 7.27615 0.273336 13.3979C-1.50729 21.1011 5.97134 24.366 6.58184 23.2947C7.29409 22.0193 5.25909 21.6112 4.80121 17.6321C4.24159 12.4796 6.63271 6.66398 9.68521 4.16427C10.2448 3.70514 10.2448 4.36832 10.2448 5.54166C10.2448 7.73528 10.1431 27.1718 10.1431 31.253C10.1431 36.7625 9.93959 38.497 9.53259 40.1805C9.12559 41.915 8.46421 43.0883 8.97296 43.5475C9.53259 44.0576 11.9237 42.8333 13.2973 40.8947C14.9762 38.548 15.5358 35.7933 15.6376 32.7324C15.7393 29.0593 15.7393 23.2437 15.7393 19.9788C15.7393 16.9179 15.7902 8.04137 15.6885 2.68484C15.6376 1.35847 12.0255 -0.0189264 10.2957 0.695277ZM155.646 26.4576C155.493 29.3144 154.882 31.5591 154.119 33.1405C152.593 36.2014 149.439 37.1196 148.116 32.7324C147.404 30.3347 147.353 26.3556 147.862 22.9886C148.37 19.5707 149.897 17.0199 152.339 17.275C154.781 17.5301 155.9 20.642 155.646 26.4576ZM114.691 44.2107C114.64 48.955 113.928 53.1382 112.3 54.3115C110.011 56.046 107.009 54.7197 107.62 51.2507C108.179 48.1898 110.825 45.0269 114.691 41.2008C114.691 41.2518 114.691 42.1191 114.691 44.2107ZM114.03 26.4066C113.877 29.0083 113.216 31.6101 112.504 33.0895C110.977 36.1504 107.823 37.1196 106.5 32.6814C105.585 29.6715 105.839 25.7944 106.246 23.3457C106.806 20.1828 108.23 17.224 110.723 17.224C113.216 17.275 114.386 19.9788 114.03 26.4066ZM90.3221 26.4066C90.1695 29.1614 89.6607 31.457 88.7958 33.1405C87.2187 36.1504 84.1662 37.1196 82.7926 32.7324C81.826 29.5695 82.1312 25.2843 82.5382 22.9376C83.1487 19.4686 84.675 17.0199 87.0152 17.275C89.4572 17.5301 90.6273 20.642 90.3221 26.4066ZM199.093 29.6205C198.482 29.6205 198.228 30.2327 198.024 31.253C197.261 34.824 196.447 35.6402 195.379 35.6402C194.209 35.6402 193.14 33.8547 192.886 30.2837C192.683 27.4779 192.683 22.3254 192.988 17.224C193.039 16.1527 192.733 15.1324 189.935 14.1121C188.714 13.653 186.985 13.0408 186.069 15.1324C183.576 21.1521 182.609 25.8965 182.406 27.835C182.406 27.937 182.253 27.937 182.253 27.733C182.101 26.2025 181.795 23.3457 181.744 17.428C181.744 16.2547 181.49 15.2854 180.218 14.4692C179.404 13.9591 176.911 13.0408 175.996 14.1121C175.232 15.0304 174.317 17.428 173.35 20.2849C172.587 22.6315 172.078 24.213 172.078 24.213C172.078 24.213 172.078 17.9382 172.078 15.5405C172.078 14.6222 171.468 14.3162 171.264 14.2651C170.45 14.0101 168.771 13.602 168.11 13.602C167.245 13.602 167.042 14.0611 167.042 14.7753C167.042 14.8773 166.889 23.0396 166.889 28.7533C166.889 29.0083 166.889 29.2634 166.889 29.5695C166.431 32.2222 164.854 35.7933 163.175 35.7933C161.496 35.7933 160.682 34.3138 160.682 27.4779C160.682 23.4988 160.784 21.7643 160.835 18.9075C160.886 17.275 160.937 15.9996 160.937 15.6935C160.937 14.8263 159.41 14.3672 158.698 14.2141C157.986 14.0611 157.375 13.9591 156.867 14.0101C156.205 14.0611 155.696 14.5202 155.696 15.1324C155.696 15.4895 155.696 16.1017 155.696 16.1017C154.832 14.7243 153.407 13.755 152.44 13.4489C149.897 12.6837 147.251 13.3469 145.216 16.1527C143.639 18.3973 142.672 20.897 142.265 24.5701C142.011 27.2228 142.062 29.9266 142.571 32.2222C141.96 34.773 140.892 35.8443 139.671 35.8443C137.941 35.8443 136.669 32.9875 136.822 28.0391C136.924 24.7741 137.585 22.4785 138.297 19.1625C138.602 17.7341 138.348 17.0199 137.738 16.3057C137.178 15.6425 135.957 15.3364 134.227 15.7446C133.006 16.0506 131.226 16.3567 129.598 16.6118C129.598 16.6118 129.699 16.2037 129.75 15.5405C130.157 11.9185 126.24 12.2246 125.019 13.3979C124.256 14.0611 123.747 14.8773 123.594 16.3567C123.289 18.6524 125.171 19.7747 125.171 19.7747C124.561 22.6315 123.035 26.3046 121.458 29.0083C120.644 30.4367 119.982 31.508 119.168 32.6304C119.168 32.2222 119.168 31.7631 119.168 31.355C119.168 25.3863 119.219 20.693 119.27 19.0095C119.321 17.377 119.372 16.1017 119.372 15.8466C119.372 15.1834 118.965 14.9793 118.202 14.6222C117.489 14.3672 116.675 14.1631 115.81 14.1121C114.742 14.0101 114.081 14.6222 114.081 15.2854C114.081 15.4385 114.081 16.2037 114.081 16.2037C113.216 14.8263 111.791 13.857 110.825 13.5509C108.281 12.7857 105.635 13.4489 103.6 16.2547C102.023 18.4993 100.955 21.6112 100.65 24.6211C100.395 27.4269 100.446 29.8246 100.802 31.8141C100.395 33.8037 99.2252 35.8953 97.9025 35.8953C96.2236 35.8953 95.257 34.4159 95.257 27.5799C95.257 23.6008 95.3587 21.8663 95.4096 19.0095C95.4605 17.377 95.5113 16.1017 95.5113 15.7956C95.5113 14.9283 93.9851 14.4692 93.2728 14.3162C92.5097 14.1631 91.8992 14.0611 91.3905 14.1121C90.7291 14.1631 90.2712 14.7243 90.2712 15.1834V16.2037C89.4063 14.8263 87.9818 13.857 87.0152 13.5509C84.4715 12.7857 81.826 13.4999 79.791 16.2547C78.4682 18.0912 77.3998 20.1318 76.8402 24.5701C76.6876 25.8454 76.6367 27.0698 76.6367 28.1921C76.128 31.406 73.7877 35.1301 71.9053 35.1301C70.7861 35.1301 69.7177 32.9875 69.7177 28.3451C69.7177 22.2234 70.0738 13.4999 70.1756 12.6327C70.1756 12.6327 72.5667 12.5817 73.0246 12.5817C74.1947 12.5817 75.314 12.5817 76.8911 12.5306C77.7051 12.4796 78.4682 9.62282 77.6542 9.26572C77.2981 9.11267 74.6526 8.95963 73.5842 8.95963C72.7193 8.95963 70.2773 8.75557 70.2773 8.75557C70.2773 8.75557 70.4808 2.93992 70.5317 2.32774C70.5826 1.8176 69.9212 1.56252 69.5651 1.40948C68.6493 1.00136 67.8353 0.848321 66.8687 0.644263C65.546 0.389191 64.9355 0.644262 64.7828 1.76658C64.5793 3.50107 64.5285 8.55151 64.5285 8.55151C63.5618 8.55151 60.1532 8.34745 59.1866 8.34745C58.2708 8.34745 57.3042 12.3266 58.5252 12.3266C60.0006 12.3776 62.5443 12.4286 64.2232 12.4796C64.2232 12.4796 64.1723 21.3562 64.1723 24.1109C64.1723 24.417 64.1723 24.6721 64.1723 24.9782C63.2566 29.8246 60.0006 32.4263 60.0006 32.4263C60.7128 29.2124 59.2883 26.8147 56.6937 24.7741C55.7271 24.0089 53.8447 22.5805 51.7588 21.0501C51.7588 21.0501 52.9798 19.8257 54.0482 17.428C54.8113 15.6935 54.8622 13.755 52.9798 13.3469C49.8765 12.6327 47.3327 14.9283 46.5696 17.377C45.9591 19.2646 46.3152 20.642 47.4345 22.1214C47.5362 22.2234 47.5871 22.3254 47.6888 22.4275C46.9766 23.8049 46.01 25.5904 45.196 27.0188C42.9575 30.9469 41.2277 34.0588 39.9558 34.0588C38.9383 34.0588 38.9383 30.8959 38.9383 27.988C38.9383 25.4373 39.1418 21.6112 39.2945 17.6831C39.3453 16.3567 38.684 15.6425 37.6156 14.9793C36.9542 14.5712 35.5297 13.755 34.7157 13.755C33.4947 13.755 29.9335 13.908 26.5757 23.6518C26.1687 24.8762 25.3038 27.1208 25.3038 27.1208L25.3547 15.4385C25.3547 15.1834 25.2021 14.8773 24.8968 14.7243C24.3372 14.4182 22.811 13.806 21.4882 13.806C20.8268 13.806 20.5216 14.1121 20.5216 14.6733L20.4198 32.9365C20.4198 34.3138 20.4707 35.9463 20.5725 36.6605C20.7251 37.3747 20.9286 37.9359 21.183 38.293C21.4373 38.6501 21.7935 38.9052 22.3022 39.0072C22.811 39.1092 25.4565 39.4663 25.6091 38.446C25.7617 37.2217 25.7617 35.8953 27.1862 30.9979C29.3738 23.3457 32.172 19.5706 33.5456 18.2443C33.8 17.9892 34.0543 17.9892 34.0543 18.3973C34.0035 20.0808 33.8 24.264 33.6473 27.835C33.2912 37.3747 35.021 39.1602 37.5138 39.1602C39.3962 39.1602 42.0926 37.2727 44.9416 32.4773C46.7222 29.5185 48.452 26.5596 49.7238 24.468C50.5887 25.2843 51.5553 26.1515 52.522 27.0698C54.7605 29.2124 55.5236 31.253 55.0148 33.1915C54.6587 34.671 53.2342 36.2014 50.6905 34.722C49.9782 34.3138 49.6221 33.9567 48.9098 33.4466C48.5028 33.1915 47.8923 33.0895 47.5362 33.3956C46.5696 34.1098 46.0608 35.0281 45.7556 36.1504C45.4503 37.2217 46.5696 37.8338 47.6888 38.344C48.6555 38.8031 50.7413 39.1602 52.115 39.2112C57.3042 39.3643 61.5268 36.7115 64.4267 29.7225C64.9355 35.7423 67.174 39.1602 70.9896 39.1602C73.5842 39.1602 76.128 35.8443 77.2472 32.5283C77.5525 33.8547 78.0612 35.0281 78.6717 35.9973C81.6225 40.6907 87.3713 39.6704 90.2712 35.6912C91.187 34.4669 91.2887 34.0078 91.2887 34.0078C91.6957 37.7828 94.7482 39.1092 96.478 39.1092C98.4112 39.1092 100.446 38.1909 101.82 35.028C101.972 35.3851 102.176 35.6912 102.379 35.9973C105.33 40.6907 111.079 39.6704 113.979 35.6912C114.132 35.4872 114.233 35.3341 114.335 35.1811L114.437 37.6808C114.437 37.6808 112.809 39.2112 111.791 40.1295C107.314 44.2107 103.957 47.3226 103.702 50.9446C103.397 55.5359 107.111 57.2704 109.96 57.4744C112.961 57.7295 115.505 56.046 117.082 53.7504C118.456 51.7098 119.372 47.3225 119.321 42.9353C119.27 41.2008 119.27 38.9562 119.219 36.6095C120.796 34.773 122.526 32.4773 124.154 29.7736C125.935 26.8147 127.817 22.8866 128.784 19.8257C128.784 19.8257 130.412 19.8257 132.192 19.7237C132.752 19.6727 132.904 19.8257 132.803 20.2338C132.701 20.744 130.564 28.8553 132.497 34.2628C133.82 37.9359 136.771 39.1602 138.501 39.1602C140.536 39.1602 142.52 37.6298 143.537 35.2831C143.639 35.5382 143.792 35.7933 143.944 35.9973C146.895 40.6907 152.644 39.6704 155.544 35.6912C156.205 34.773 156.561 34.0078 156.561 34.0078C157.172 37.9359 160.224 39.1092 161.954 39.1092C163.786 39.1092 165.464 38.344 166.889 35.0791C166.94 36.5585 167.042 37.7318 167.194 38.0889C167.296 38.293 167.805 38.5991 168.161 38.7521C169.84 39.3643 171.519 39.0582 172.129 38.9562C172.587 38.8541 172.892 38.497 172.943 37.6298C173.045 35.2831 172.994 31.304 173.706 28.3451C174.927 23.3967 175.996 21.4582 176.555 20.5399C176.86 20.0298 177.166 19.9277 177.217 20.4889C177.217 21.6112 177.318 24.9782 177.776 29.4675C178.132 32.7834 178.59 34.722 178.946 35.3341C179.964 37.1196 181.185 37.1707 182.202 37.1707C182.864 37.1707 184.186 37.0176 184.034 35.8443C183.983 35.2831 184.085 31.9162 185.255 27.0188C186.018 23.8559 187.29 20.948 187.799 19.9278C187.951 19.5196 188.053 19.8257 188.053 19.9278C187.951 22.1214 187.748 29.2634 188.613 33.1915C189.834 38.497 193.293 39.1092 194.514 39.1092C197.109 39.1092 199.245 37.1196 199.958 31.9162C200.11 30.5898 199.856 29.6205 199.093 29.6205Z" fill="#262626"/>
</symbol>
<symbol id='shopify' viewBox="0 0 200 58" fill="none">
  <path d="M42.9995 11.3385C42.9668 11.0447 42.7054 10.9141 42.5094 10.9141C42.3133 10.9141 38.033 10.5876 38.033 10.5876C38.033 10.5876 35.0596 7.61683 34.7002 7.32302C34.3734 6.99656 33.7526 7.0945 33.4912 7.15979C33.4586 7.15979 32.8378 7.35567 31.8248 7.68213C30.8119 4.77663 29.0802 2.1323 25.9761 2.1323H25.6821C24.8325 1.02234 23.7216 0.5 22.8067 0.5C15.6184 0.5 12.1549 9.47766 11.0766 14.0481C8.26662 14.9295 6.27348 15.5172 6.04476 15.6151C4.47639 16.1048 4.44372 16.1374 4.24767 17.6065C4.0843 18.7165 0 50.2852 0 50.2852L31.7922 56.2268L49.0442 52.5051C49.0769 52.4398 43.0322 11.6323 42.9995 11.3385ZM30.0604 8.13917C29.2762 8.36769 28.3287 8.66151 27.3811 8.98797V8.40034C27.3811 6.63745 27.1524 5.20103 26.7276 4.05842C28.3614 4.25429 29.3743 6.04982 30.0604 8.13917ZM24.7345 4.41752C25.1593 5.52749 25.4533 7.0945 25.4533 9.24913V9.57559C23.6889 10.1306 21.8265 10.6856 19.8987 11.3058C20.977 7.19243 23.0354 5.16838 24.7345 4.41752ZM22.6433 2.39347C22.9701 2.39347 23.2968 2.52405 23.5582 2.71993C21.2383 3.79725 18.7878 6.50687 17.7749 11.9914C16.2392 12.4811 14.7688 12.9055 13.3638 13.3625C14.5401 9.18384 17.4808 2.39347 22.6433 2.39347Z" fill="white"/>
  <path d="M42.5096 10.8487C42.3135 10.8487 38.0332 10.5222 38.0332 10.5222C38.0332 10.5222 35.0598 7.55146 34.7004 7.25764C34.5697 7.12706 34.4063 7.06177 34.2756 7.06177L31.8904 56.2267L49.1425 52.5051C49.1425 52.5051 43.0977 11.6322 43.0651 11.3384C42.9344 11.0446 42.7056 10.914 42.5096 10.8487Z" fill="#8E8E8E"/>
  <path d="M25.9763 20.3814L23.8851 26.6821C23.8851 26.6821 21.99 25.6701 19.7355 25.6701C16.37 25.6701 16.2066 27.7921 16.2066 28.3144C16.2066 31.1872 23.7217 32.2972 23.7217 39.0549C23.7217 44.3762 20.3563 47.8041 15.8145 47.8041C10.3252 47.8041 7.58057 44.4089 7.58057 44.4089L9.05092 39.5773C9.05092 39.5773 11.9263 42.0584 14.3442 42.0584C15.9452 42.0584 16.5987 40.8178 16.5987 39.9037C16.5987 36.1494 10.4559 35.9862 10.4559 29.7835C10.4559 24.5927 14.1808 19.5652 21.7286 19.5652C24.5386 19.5326 25.9763 20.3814 25.9763 20.3814Z" fill="black"/>
  <path d="M69.1716 32.2319C67.4399 31.3178 66.5576 30.5017 66.5576 29.4243C66.5576 28.0532 67.7993 27.1718 69.7271 27.1718C71.9816 27.1718 73.9747 28.0859 73.9747 28.0859L75.5431 23.2869C75.5431 23.2869 74.1054 22.1769 69.8578 22.1769C63.9437 22.1769 59.8267 25.5721 59.8267 30.3384C59.8267 33.0481 61.7545 35.1048 64.3031 36.5738C66.3943 37.7164 67.1131 38.5652 67.1131 39.8058C67.1131 41.079 66.0675 42.1237 64.1397 42.1237C61.2971 42.1237 58.5851 40.6546 58.5851 40.6546L56.9187 45.4536C56.9187 45.4536 59.402 47.1185 63.5843 47.1185C69.6617 47.1185 74.0728 44.1151 74.0728 38.7285C74.0074 35.7903 71.8182 33.7663 69.1716 32.2319ZM93.416 22.1116C90.41 22.1116 88.0574 23.5481 86.2603 25.7027L86.195 25.6701L88.8089 12.0893H82.0453L75.4451 46.6941H82.2087L84.4632 34.8762C85.3454 30.4037 87.6653 27.6288 89.8218 27.6288C91.3575 27.6288 91.9457 28.6735 91.9457 30.1426C91.9457 31.0567 91.8803 32.2319 91.6516 33.146L89.103 46.6941H95.8666L98.5132 32.7216C98.8073 31.2525 99.0033 29.4896 99.0033 28.2817C98.9707 24.3969 96.9775 22.1116 93.416 22.1116ZM114.295 22.1116C106.126 22.1116 100.735 29.457 100.735 37.6512C100.735 42.8745 103.97 47.1185 110.047 47.1185C118.053 47.1185 123.444 39.969 123.444 31.579C123.476 26.7147 120.666 22.1116 114.295 22.1116ZM110.962 41.9604C108.642 41.9604 107.695 40.0017 107.695 37.5206C107.695 33.6357 109.688 27.335 113.38 27.335C115.765 27.335 116.582 29.4243 116.582 31.4158C116.582 35.5618 114.524 41.9604 110.962 41.9604ZM140.794 22.1116C136.219 22.1116 133.638 26.1597 133.638 26.1597H133.573L133.965 22.536H127.953C127.659 24.9845 127.103 28.7388 126.581 31.5137L121.908 56.292H128.672L130.567 46.2697H130.73C130.73 46.2697 132.135 47.1511 134.684 47.1511C142.656 47.1511 147.852 38.9896 147.852 30.7628C147.819 26.1924 145.76 22.1116 140.794 22.1116ZM134.324 42.0257C132.56 42.0257 131.514 41.0137 131.514 41.0137L132.625 34.713C133.409 30.469 135.631 27.6941 137.984 27.6941C140.075 27.6941 140.696 29.6202 140.696 31.4158C140.729 35.7903 138.115 42.0257 134.324 42.0257ZM157.491 12.4158C155.334 12.4158 153.602 14.146 153.602 16.3333C153.602 18.3247 154.877 19.7285 156.804 19.7285H156.87C158.994 19.7285 160.791 18.292 160.823 15.8109C160.856 13.8195 159.516 12.4158 157.491 12.4158ZM148.015 46.6615H154.779L159.353 22.634H152.557L148.015 46.6615ZM176.605 22.6013H171.9L172.129 21.4914C172.521 19.1735 173.893 17.1494 176.18 17.1494C177.389 17.1494 178.337 17.5085 178.337 17.5085L179.644 12.1872C179.644 12.1872 178.5 11.5996 175.952 11.5996C173.566 11.5996 171.148 12.2852 169.319 13.8522C166.999 15.8109 165.921 18.6512 165.398 21.524L165.202 22.634H162.032L161.019 27.7594H164.189L160.595 46.6941H167.358L170.952 27.7594H175.625L176.605 22.6013ZM192.91 22.634C192.91 22.634 188.662 33.3092 186.799 39.1529H186.734C186.603 37.2594 185.068 22.634 185.068 22.634H177.945L182.029 44.6374C182.094 45.1271 182.062 45.4209 181.866 45.7474C181.081 47.2817 179.742 48.7508 178.173 49.8281C176.899 50.7422 175.461 51.3625 174.318 51.7542L176.213 57.5C177.585 57.2061 180.461 56.0635 182.846 53.8109C185.917 50.9381 188.793 46.4656 191.733 40.3934L200 22.6013H192.91V22.634Z" fill="white"/>
</symbol>
<symbol id='skype' viewBox="0 0 270 180" fill="none">
<rect width="270" height="180" rx="8" fill="#E6E6E6"/>
<path d="M114.697 106.826V101.829C115.303 102.339 115.909 102.747 116.717 103.155C117.526 103.563 118.334 103.868 119.243 104.174C120.152 104.48 120.96 104.684 121.869 104.786C122.778 104.888 123.586 104.99 124.293 104.99C126.818 104.99 128.738 104.48 130.051 103.563C131.364 102.645 131.97 101.217 131.97 99.3816C131.97 98.3619 131.768 97.5461 131.364 96.8323C130.96 96.1185 130.354 95.4046 129.647 94.8948C128.94 94.2829 128.031 93.7731 127.021 93.1612C126.01 92.6514 124.899 92.0395 123.788 91.4277C122.576 90.8158 121.364 90.102 120.354 89.4902C119.243 88.8783 118.334 88.1645 117.526 87.3487C116.717 86.5329 116.111 85.7171 115.606 84.6974C115.101 83.6777 114.899 82.556 114.899 81.2303C114.899 79.5987 115.303 78.1711 116.01 76.9474C116.717 75.7237 117.627 74.704 118.839 73.9902C119.95 73.1744 121.263 72.6645 122.778 72.2566C124.293 71.8487 125.808 71.6448 127.324 71.6448C130.859 71.6448 133.384 72.0527 135 72.9704V77.7632C132.879 76.3356 130.253 75.5198 126.919 75.5198C126.01 75.5198 125.101 75.6218 124.192 75.8257C123.283 76.0296 122.475 76.3356 121.768 76.7435C121.061 77.1514 120.455 77.7632 120.051 78.477C119.647 79.1908 119.344 80.0066 119.344 81.0264C119.344 81.9441 119.546 82.7599 119.849 83.3718C120.152 84.0856 120.657 84.6974 121.364 85.2073C122.071 85.7171 122.879 86.329 123.788 86.8389C124.697 87.3487 125.808 87.9606 127.021 88.5724C128.334 89.1843 129.546 89.8981 130.657 90.6119C131.768 91.3257 132.778 92.1415 133.687 92.9573C134.596 93.7731 135.202 94.7928 135.707 95.8125C136.212 96.8323 136.414 98.056 136.414 99.3816C136.414 101.115 136.111 102.645 135.404 103.868C134.697 105.092 133.788 106.112 132.677 106.826C131.465 107.641 130.152 108.151 128.637 108.457C127.122 108.763 125.505 108.967 123.788 108.967C123.182 108.967 122.576 108.967 121.667 108.865C120.859 108.763 119.95 108.661 119.142 108.457C118.334 108.253 117.425 108.049 116.717 107.845C115.707 107.438 115.101 107.132 114.697 106.826Z" fill="black"/>
<path d="M160.858 108.253H155.101L143.989 95.9145H143.888V108.253H139.747V70.1151H143.888V94.2829H143.989L154.596 82.4539H159.949L148.131 94.8947L160.858 108.253Z" fill="black"/>
<path d="M184.798 82.454L173.182 112.332C171.06 117.635 168.131 120.286 164.394 120.286C163.384 120.286 162.475 120.184 161.768 119.98V116.309C162.677 116.615 163.485 116.717 164.192 116.717C166.212 116.717 167.727 115.494 168.838 113.046L170.858 108.151L160.959 82.454H165.505L172.374 102.237C172.475 102.441 172.677 103.155 172.879 104.174H172.98C173.081 103.767 173.182 103.155 173.485 102.237L180.656 82.3521H184.798V82.454Z" fill="black"/>
<path d="M191.161 94.181V97.7501C191.161 99.8915 191.869 101.727 193.182 103.155C194.596 104.684 196.313 105.398 198.333 105.398C200.757 105.398 202.677 104.48 204.091 102.543C205.505 100.605 206.212 97.954 206.212 94.5889C206.212 91.7336 205.606 89.4902 204.293 87.8586C202.98 86.227 201.263 85.4112 199.04 85.4112C196.717 85.4112 194.798 86.227 193.384 87.9606C191.869 89.4902 191.161 91.6316 191.161 94.181ZM191.263 104.48L191.161 120.082H187.121V82.454H191.161V86.9408H191.263C193.283 83.4737 196.212 81.8422 200.05 81.8422C203.283 81.8422 205.909 82.9639 207.727 85.3093C209.545 87.6547 210.454 90.7139 210.454 94.5889C210.454 98.8718 209.444 102.339 207.323 104.888C205.303 107.438 202.475 108.763 198.838 108.763C195.606 108.865 192.98 107.438 191.263 104.48Z" fill="black"/>
<path d="M230.859 92.9573C230.859 90.6119 230.253 88.6744 229.142 87.3487C228.03 86.023 226.515 85.4112 224.495 85.4112C222.576 85.4112 220.96 86.125 219.647 87.4507C218.333 88.8783 217.525 90.6119 217.121 92.9573H230.859ZM235 96.4244H217.121C217.222 99.2796 217.929 101.523 219.445 103.053C220.859 104.582 222.879 105.398 225.404 105.398C228.232 105.398 230.859 104.48 233.283 102.543V106.418C231.061 108.049 228.131 108.865 224.394 108.865C220.859 108.865 218.03 107.743 215.909 105.398C213.889 103.053 212.879 99.7895 212.879 95.5066C212.879 91.5296 213.99 88.2665 216.212 85.7171C218.434 83.1678 221.263 81.9441 224.596 81.9441C227.929 81.9441 230.455 83.0658 232.273 85.2072C234.091 87.3487 235 90.4079 235 94.2829V96.4244Z" fill="black"/>
<path d="M65.6061 108.763C55.404 108.763 50.7576 103.563 50.7576 99.6875C50.7576 97.75 52.2727 96.3224 54.2929 96.3224C58.6364 96.3224 57.5252 102.951 65.7071 102.951C69.8485 102.951 72.2727 100.401 72.2727 98.0559C72.2727 96.6283 71.4646 94.9967 68.7374 94.3849L59.6465 92.0395C52.3737 90.204 51.0606 86.023 51.0606 82.25C51.0606 74.398 58.2323 71.5428 65 71.5428C71.2626 71.5428 78.7374 75.0099 78.7374 79.8026C78.7374 81.8421 77.0202 82.9638 75.101 82.9638C71.3636 82.9638 71.9697 77.6612 64.4949 77.6612C60.7576 77.6612 58.8384 79.3947 58.8384 81.8421C58.8384 84.2895 61.7677 85.1053 64.2929 85.7171L70.9596 87.2467C78.3333 88.8783 80.2525 93.2632 80.2525 97.4441C80.2525 103.766 75.303 108.763 65.6061 108.763ZM93.7879 95.0987C94.0909 93.4671 94.1919 91.7336 94.1919 90C94.1919 73.8882 81.3636 60.8355 65.505 60.8355C63.7879 60.8355 62.1717 60.9375 60.5555 61.2434C58.0303 59.8158 55.202 59 52.0707 59C42.6768 59 35 66.75 35 76.3355C35 79.4967 35.8081 82.352 37.2222 84.9013C36.9192 86.5329 36.8182 88.2664 36.8182 90C36.8182 106.112 49.6465 119.164 65.505 119.164C67.2222 119.164 68.8384 119.062 70.4545 118.757C72.9798 120.184 75.8081 121 78.9394 121C88.3333 121 96.0101 113.25 96.0101 103.664C96.0101 100.605 95.202 97.648 93.7879 95.0987Z" fill="black"/>
</symbol>
<symbol id='pinterest' viewBox="0 0 200 48" fill="none">
  <path d="M86.3953 17.1366H92.4922V19.8664H92.6086C94.0844 17.7215 95.9872 16.5517 98.7446 16.5517C103.094 16.5517 105.657 19.6715 105.657 24.1173V37.1036H99.327V25.4043C99.327 23.2983 98.2785 21.8552 96.2203 21.8552C94.1234 21.8552 92.7252 23.6103 92.7252 26.0671V37.1036H86.3953V17.1366Z" fill="black"/>
  <path d="M85.7054 11.7945C85.7054 9.6885 84.0053 7.98144 81.9084 7.98144C79.8114 7.98144 78.1113 9.6885 78.1113 11.7945C78.1113 13.9004 79.8114 15.6074 81.9084 15.6074C84.0053 15.6074 85.7054 13.9004 85.7054 11.7945Z" fill="black"/>
  <path d="M150.177 16.8481C149.996 16.8318 149.789 16.8245 149.547 16.8245C147.139 16.8245 145.508 17.8774 144.11 20.2563H143.993V17.1365H137.935V37.1034H144.265V28.1339C144.265 23.9779 146.557 22.0521 150.177 22.3881V16.8481Z" fill="black"/>
  <path d="M181.24 24.5072C178.716 24.0393 176.464 23.8444 176.464 22.4405C176.464 21.1924 177.668 20.6075 179.221 20.6075C180.968 20.6075 182.172 21.1534 182.405 22.9475H188.23C187.92 19.0087 184.891 16.5517 179.26 16.5517C174.561 16.5517 170.677 18.7356 170.677 22.9475C170.677 27.627 174.367 28.563 177.823 29.1481C180.464 29.6161 182.871 29.8111 182.871 31.6049C182.871 32.8919 181.667 33.5939 179.765 33.5939C177.856 33.5939 176.593 32.7828 176.206 31.1371H170.174C170.618 35.2417 174.206 37.7277 179.803 37.7277C185.007 37.7277 188.852 35.4658 188.852 31.0981C188.852 25.9892 184.735 25.0922 181.24 24.5072Z" fill="black"/>
  <path d="M159.996 21.0754C162.054 21.0754 163.53 22.5963 163.763 24.9754H155.919C156.346 22.5963 157.589 21.0754 159.996 21.0754ZM160.346 33.1257C157.744 33.1257 156.268 31.4489 155.88 28.758H170.171C170.21 24.7023 169.045 21.2314 166.676 19.0476C164.967 17.4877 162.715 16.5517 159.879 16.5517C153.821 16.5517 149.666 21.1143 149.666 27.0812C149.666 33.1257 153.705 37.6887 160.268 37.6887C162.792 37.6887 164.812 37.0257 166.481 35.8558C168.229 34.6468 169.394 32.9309 169.821 31.1371H163.647C163.103 32.385 162.016 33.1257 160.346 33.1257Z" fill="black"/>
  <path d="M200 32.3952C199.707 32.4068 199.313 32.4239 198.951 32.4239C197.592 32.4239 196.738 32.0338 196.738 30.4739V21.1143H200V17.1365H196.738V10.8188H190.563V17.1365H188.62V21.1143H190.563V31.8388C190.563 36.1288 193.204 37.3375 196.893 37.3375C198.301 37.3375 199.365 37.2317 200 37.1071V32.3952Z" fill="black"/>
  <path d="M116.961 32.4042C116.709 32.4141 116.417 32.4239 116.145 32.4239C114.786 32.4239 113.931 32.0338 113.931 30.4739V21.1143H116.961V17.1365H113.931V10.8188H107.757V17.1365H105.698V21.1143H107.757V31.8388C107.757 36.1288 110.397 37.3375 114.087 37.3375C115.335 37.3375 116.312 37.2541 116.961 37.1485V32.4042Z" fill="black"/>
  <path d="M130.749 24.9754C130.516 22.5965 129.04 21.0753 126.982 21.0753C124.574 21.0753 123.332 22.5965 122.904 24.9754H130.749ZM116.652 27.0812C116.652 21.1145 120.807 16.5518 126.865 16.5518C129.7 16.5518 131.953 17.4877 133.661 19.0476C136.03 21.2316 137.195 24.7023 137.156 28.7582H122.866C123.254 31.4489 124.729 33.1259 127.332 33.1259C129.001 33.1259 130.089 32.385 130.632 31.1371H136.807C136.38 32.9309 135.215 34.6468 133.467 35.8559C131.797 37.0257 129.778 37.6887 127.254 37.6887C120.691 37.6887 116.652 33.1259 116.652 27.0812Z" fill="black"/>
  <path d="M67.7506 22.3234C70.236 22.3234 71.634 20.8414 71.634 18.6183C71.634 16.3957 70.197 15.0307 67.7506 15.0307H62.896V22.3234H67.7506ZM56.4875 9.21999H67.4798C70.8582 9.21999 73.3437 10.1559 75.0524 11.7939C76.8388 13.4706 77.8485 15.8497 77.8485 18.6575C77.8485 24.0002 74.1592 27.7832 68.4505 27.7832H62.896V37.1036H56.4875V9.21999Z" fill="black"/>
  <path d="M47.7981 24.0001C47.7981 37.2548 37.0981 48 23.8992 48C10.7002 48 0.000244141 37.2548 0.000244141 24.0001C0.000244141 10.7451 10.7002 0.000148773 23.8992 0.000148773C37.0981 0.000148773 47.7981 10.7451 47.7981 24.0001Z" fill="white"/>
  <path d="M23.8989 -9.53674e-05C10.7 -9.53674e-05 0 10.7451 0 23.9998C0 34.1674 6.29935 42.8593 15.1895 46.3562C14.9807 44.4574 14.7919 41.5371 15.2724 39.4641C15.7067 37.591 18.0748 27.5345 18.0748 27.5345C18.0748 27.5345 17.36 26.0968 17.36 23.9713C17.36 20.6341 19.2861 18.1427 21.6844 18.1427C23.7234 18.1427 24.7082 19.68 24.7082 21.5233C24.7082 23.5826 23.4027 26.6612 22.729 29.5143C22.1659 31.903 23.9218 33.8511 26.268 33.8511C30.5156 33.8511 33.7808 29.3533 33.7808 22.8609C33.7808 17.1145 29.6691 13.0969 23.798 13.0969C16.998 13.0969 13.0066 18.2188 13.0066 23.5121C13.0066 25.5749 13.7978 27.7868 14.7852 28.9892C14.9805 29.2268 15.0091 29.435 14.9509 29.6776C14.7695 30.4356 14.3664 32.0657 14.2872 32.3994C14.183 32.8387 13.9408 32.9319 13.4879 32.7202C10.5031 31.325 8.63689 26.9426 8.63689 23.4226C8.63689 15.8519 14.1144 8.89915 24.4279 8.89915C32.7184 8.89915 39.1612 14.8318 39.1612 22.7604C39.1612 31.0317 33.9679 37.6884 26.7597 37.6884C24.338 37.6884 22.0613 36.4249 21.282 34.9325C21.282 34.9325 20.0837 39.5148 19.7931 40.6378C19.2536 42.7224 17.7971 45.3354 16.8228 46.9295C19.0589 47.6248 21.4352 47.9998 23.8989 47.9998C37.0981 47.9998 47.798 37.2546 47.798 23.9998C47.798 10.7451 37.0981 -9.53674e-05 23.8989 -9.53674e-05Z" fill="black"/>
</symbol>
<symbol id='wix' viewBox="0 0 200 68" fill="none">
  <path d="M74.3706 0.498852C73.1183 0.498852 71.8703 0.494658 70.6181 0.494658C67.6515 0.48837 64.9138 2.75203 62.8233 4.54619C60.8189 6.35921 58.9952 8.35668 57.3711 10.5155C56.7618 8.89116 56.0264 7.31498 55.1713 5.79959C54.6307 4.68744 53.8598 3.70233 52.9095 2.90928C51.9591 2.11624 50.851 1.53328 49.6582 1.19891C48.4232 1.03165 47.1745 0.988813 45.931 1.07105C44.8847 1.06686 41.9117 1.07105 41.9117 1.07105C41.9117 1.07105 38.9345 1.06686 37.8903 1.07105C36.6468 0.988813 35.398 1.03165 34.1631 1.19891C32.9703 1.53328 31.8622 2.11624 30.9118 2.90928C29.9615 3.70233 29.1906 4.68744 28.65 5.79959C27.8007 7.31192 27.0708 8.88798 26.467 10.5134C24.8429 8.35459 23.0171 6.35712 21.0148 4.54409C18.9201 2.74993 16.1866 0.486275 13.2158 0.492563L9.46333 0.496755C7.67605 0.49955 5.89017 0.502344 4.10569 0.505138C2.80305 0.511426 -0.0753674 0.169782 0.605368 2.28253C0.77345 2.79395 1.35334 3.25297 1.6832 3.67845L2.76103 5.18127L4.27377 7.71322L7.59341 14.0221C10.0816 18.6326 12.9607 23.0222 16.1992 27.143C18.6427 30.1528 21.5926 33.192 25.2442 34.6843C22.4876 39.7943 19.7381 44.9085 16.9955 50.0269L9.36878 63.8394C8.94459 64.505 8.6727 65.2557 8.57249 66.0381C8.57459 67.4508 10.6777 67.4927 11.682 67.499L14.9386 67.4654C16.8253 67.4445 18.7121 67.4235 20.5988 67.4025L23.9605 67.3271C25.3591 67.2046 26.7153 66.7846 27.9377 66.0955C29.1601 65.4065 30.2204 64.4642 31.0472 63.3322C31.5893 62.5776 36.6612 54.2775 38.716 50.924L41.9243 45.8601L45.1305 50.924L52.7993 63.3322C53.6261 64.4642 54.6864 65.4065 55.9088 66.0955C57.1312 66.7846 58.4874 67.2046 59.886 67.3271C60.9996 67.4319 62.1341 67.39 63.2477 67.4025C65.133 67.4207 67.0198 67.4417 68.9079 67.4654L72.1645 67.499C73.1688 67.4927 75.274 67.4508 75.274 66.0381C75.1753 65.2542 74.9021 64.5038 74.4756 63.8373L74.1184 63.2043L66.8552 50.0269C64.1042 44.9127 61.3519 39.7985 58.5981 34.6843C62.2539 33.1899 65.2017 30.1528 67.6452 27.143C70.8849 23.0223 73.7655 18.6333 76.2531 14.0221L79.5769 7.71322L81.0897 5.18127C81.4258 4.66356 81.783 4.16053 82.1654 3.67845C82.5961 3.27183 82.9596 2.79814 83.2453 2.28253C83.9261 0.169782 81.0477 0.511426 79.7471 0.505138C77.957 0.502344 76.1691 0.49955 74.3832 0.496755L74.3706 0.498852Z" fill="black"/>
  <path d="M48.1077 12.2637L48.6792 12.1673C48.9429 12.1119 49.202 12.0369 49.4545 11.9431C49.9705 11.7637 50.4496 11.4924 50.8685 11.1424C51.0568 11.0085 51.2161 10.8381 51.337 10.6415C49.6814 10.6729 48.4481 10.6624 47.6329 10.5995C47.4102 10.566 47.2484 11.1382 47.1433 12.2763C47.1328 12.3644 47.6686 12.3078 48.1098 12.247L48.1077 12.2637ZM39.7666 19.9455C39.7456 19.9665 39.7351 20 39.7351 20.0294C39.7351 20.0587 39.7561 20.1006 39.7813 20.1237C39.8591 20.197 39.9452 20.262 40.0335 20.3207C40.5587 20.6686 41.1743 20.8489 41.8025 20.8405C42.4329 20.8519 43.0518 20.6705 43.5758 20.3207C43.6688 20.2616 43.7573 20.1958 43.8405 20.1237C43.9036 20.0713 43.933 19.9895 43.8867 19.9141C43.8279 19.8554 43.7355 19.8554 43.6766 19.9099L43.4392 20.088H43.4371C42.9504 20.3987 42.3846 20.5638 41.8067 20.5638C41.2289 20.5638 40.6631 20.3987 40.1763 20.088H40.1721C40.0947 20.0328 40.0203 19.9733 39.9494 19.9099C39.9242 19.8889 39.8906 19.8763 39.8549 19.8784C39.8191 19.8805 39.7876 19.8994 39.7666 19.9204V19.9455ZM47.0236 18.864C47.0171 18.8504 47.0114 18.8364 47.0068 18.8221C47.011 18.8367 47.0173 18.8514 47.0278 18.864H47.0236ZM50.9252 14.2444C50.7808 13.9244 50.5644 13.6418 50.2928 13.4186C49.5364 12.8527 48.4859 12.8946 47.7779 13.5234C47.4793 13.8264 47.2393 14.1817 47.0698 14.5714C46.6451 15.4793 46.4366 16.4728 46.4605 17.4744C46.4804 17.9319 46.6577 18.3686 46.9627 18.711C47.364 19.0763 47.869 19.3084 48.4082 19.3754C48.9397 19.5347 49.5091 19.5116 50.0218 19.3062C50.533 18.9331 50.8752 18.3732 50.9735 17.7489C51.2108 17.0173 51.3147 16.2492 51.2803 15.4811C51.2372 15.044 51.1163 14.6181 50.9231 14.2235L50.9252 14.2444Z" fill="white"/>
  <path d="M49.0887 16.0886C49.3505 15.9896 49.6205 15.9139 49.8955 15.8623C49.3073 15.9042 49.0005 15.6673 48.9459 15.1538L48.8366 14.1058C48.8576 14.5711 48.7673 15.0344 48.5761 15.4577C48.508 15.5752 48.4102 15.6728 48.2925 15.7407L47.9416 15.8518C47.8122 15.8982 47.6773 15.9278 47.5403 15.9398C48.1832 15.8832 48.5278 16.0446 48.5845 16.4009L48.7946 17.4175C48.8051 16.621 48.9144 16.1913 49.1098 16.1096L49.0887 16.0886ZM49.8934 17.6774L49.8304 17.0171C49.8409 17.3043 49.7884 17.5894 49.677 17.8555C49.6287 17.9289 49.5657 17.9897 49.4669 18.0337L49.261 18.0966C49.177 18.1238 49.093 18.1427 49.0089 18.1511C49.3997 18.1175 49.6392 18.214 49.6392 18.434L49.7506 19.0544C49.7506 18.564 49.8136 18.3062 49.946 18.258C50.1042 18.1928 50.269 18.145 50.4376 18.1154C50.0762 18.1364 49.8829 17.9855 49.8493 17.6962" fill="white"/>
  <path d="M36.4302 12.2929C36.3167 11.1359 36.1571 10.5637 35.9385 10.6161C35.0981 10.679 33.89 10.6895 32.2302 10.658C32.3514 10.8538 32.5099 11.024 32.6967 11.159C33.1161 11.5082 33.595 11.7794 34.1106 11.9596C34.3627 12.0525 34.6211 12.1275 34.8838 12.1839C34.9385 12.1965 35.178 12.2405 35.4553 12.2803C35.8755 12.3432 36.4323 12.3998 36.4281 12.3096L36.4302 12.2929ZM36.5605 18.8868L36.5773 18.8449C36.5731 18.8596 36.5689 18.8722 36.5626 18.8868H36.5605ZM32.308 15.506C32.2717 16.2743 32.3757 17.0427 32.6147 17.7739C32.6621 18.0831 32.7704 18.38 32.9334 18.6473C33.0964 18.9146 33.3108 19.147 33.5644 19.3312C34.0791 19.5366 34.6485 19.5408 35.178 19.4003C35.7179 19.3333 36.2222 19.1027 36.6487 18.7359C36.9537 18.3936 37.131 17.9568 37.1508 17.4993C37.1761 16.4974 36.966 15.5039 36.5205 14.5964C36.3575 14.1969 36.1169 13.8337 35.8125 13.5274C35.1065 12.8986 34.056 12.8567 33.2997 13.4226C33.0265 13.6448 32.8122 13.9256 32.6693 14.2484C32.4742 14.6424 32.3524 15.0686 32.3101 15.506H32.308Z" fill="white"/>
  <path d="M34.497 16.0889C34.2353 15.9898 33.9653 15.914 33.6902 15.8625C34.2785 15.9044 34.5852 15.6676 34.6398 15.1541L34.7491 14.1061C34.7278 14.5714 34.8185 15.0349 35.0138 15.458C35.0811 15.5754 35.1777 15.6718 35.2933 15.741L35.6441 15.852C35.7744 15.8981 35.9089 15.9275 36.0475 15.9401C35.4046 15.8835 35.0558 16.0449 35.0033 16.4012L34.7932 17.4177C34.7827 16.6213 34.6735 16.1916 34.4781 16.1098L34.497 16.0889ZM33.6902 17.6776L33.7574 17.0174C33.7482 17.3039 33.8005 17.589 33.9108 17.8537C33.957 17.925 34.02 17.9857 34.0957 18.0319L34.3058 18.0947C34.3898 18.122 34.4739 18.1409 34.5579 18.1492C34.165 18.1157 33.9276 18.2121 33.9276 18.4322L33.8183 19.0526C33.8183 18.5621 33.7511 18.3043 33.6229 18.2561C33.4649 18.1906 33.3 18.1428 33.1313 18.1136C33.4927 18.1346 33.6881 17.9837 33.7196 17.6944L33.6902 17.6776ZM9.61653 63.9653L9.10598 65.007C8.9568 65.3295 8.86985 65.6772 8.84966 66.0319V66.0361C8.84335 66.2729 8.94 66.4972 9.11228 66.6607C9.31959 66.8356 9.56376 66.9617 9.82664 67.0296C10.4345 67.1712 11.0578 67.2353 11.6818 67.2203L12.018 67.2224L20.6007 67.1218L21.189 67.1197L21.8824 67.1218L23.9372 67.0464C26.6685 66.8074 29.2003 65.3696 30.8286 63.1646C31.2146 62.5824 31.59 61.9934 31.9547 61.3977L34.0852 57.9561L38.4847 50.7774L41.693 45.7093C41.7191 45.6705 41.754 45.6385 41.7949 45.6159C41.8358 45.5933 41.8816 45.5808 41.9283 45.5793C42.0229 45.5751 42.109 45.6296 42.1384 45.7093L45.353 50.7774L51.8809 61.3956L53.0092 63.1625C53.8118 64.2637 54.842 65.1803 56.0301 65.8503C57.2183 66.5203 58.5367 66.9282 59.8964 67.0464C60.5797 67.1044 61.2654 67.1295 61.9512 67.1218L62.6487 67.1197L63.237 67.1218C65.1209 67.1428 67.0077 67.1637 68.8972 67.1847L71.8386 67.2203L72.1748 67.2182C72.6373 67.2239 73.0995 67.1937 73.5573 67.1281C73.9901 67.0862 74.404 66.9248 74.7465 66.6565C74.8325 66.5772 74.9004 66.4804 74.9457 66.3726C74.991 66.2649 75.0126 66.1487 75.0091 66.0319V66.0235C74.9881 65.6672 74.9041 65.3214 74.757 64.9755C74.6057 64.6129 74.4103 64.2503 74.2443 63.9422L73.8913 63.3365L66.6218 50.1318C63.8694 45.0176 61.1185 39.9034 58.3689 34.7892C58.3332 34.7201 58.3269 34.6383 58.3542 34.565C58.3815 34.4916 58.4383 34.4308 58.5097 34.4015C62.0877 32.9427 65.0145 29.937 67.4454 26.944C70.6768 22.8358 73.5468 18.4552 76.0281 13.8588L78.543 9.03381C76.6149 11.9311 74.2246 14.4941 71.4668 16.6213C67.4118 19.8805 60.5414 23.1188 50.8661 26.2628C41.5515 29.2992 34.6994 32.8344 30.3096 36.8684L25.9101 40.7732C24.9793 41.7434 24.0646 42.7286 23.1661 43.7286C20.9453 46.2521 18.8653 48.8952 16.9365 51.6472L14.8061 54.6654L9.97371 63.3365L9.62074 63.9569" fill="white"/>
  <path d="M82.7832 2.13362C82.6946 2.34108 82.5669 2.52964 82.4071 2.68906L81.7852 3.38073L81.781 3.38492C81.386 3.87958 81.0183 4.39518 80.6758 4.92756H80.6779L79.1568 7.47837L75.8308 13.7915C73.3558 18.3775 70.4942 22.7455 67.2691 26.8431C64.8466 29.832 61.9409 32.8041 58.4196 34.2419C58.2935 34.2943 58.1885 34.3991 58.1423 34.5312C58.096 34.6632 58.1065 34.8079 58.1717 34.9504C60.9282 40.0604 63.6806 45.1746 66.4287 50.293L73.6983 63.4767L74.0513 64.0992L74.5555 65.1157C74.6923 65.4121 74.7728 65.7312 74.7929 66.0568V66.0673C74.8013 66.2434 74.7299 66.4152 74.5996 66.5347C74.2845 66.7716 73.9126 66.9162 73.5197 66.9539C73.0722 67.0168 72.6226 67.044 72.1708 67.0419H71.8032C70.8493 67.0419 69.887 67.0168 68.9206 67.0084C67.0324 66.986 65.1457 66.9651 63.2604 66.9455L62.7477 66.9413L61.9493 66.9434C61.2665 66.9434 60.5921 66.9351 59.9386 66.8722C58.6101 66.7558 57.3218 66.3573 56.1604 65.7033C54.999 65.0494 53.9912 64.1551 53.2048 63.0805L52.8203 62.4937L45.5592 50.7059L42.3446 45.6336C42.2542 45.4932 42.0967 45.4072 41.9286 45.4072C41.7605 45.4072 41.605 45.4911 41.5126 45.6336C41.5105 45.6378 39.0838 49.4273 38.298 50.7059L33.9047 57.8448L31.7764 61.2822L31.041 62.4517L30.6565 63.0386C29.0661 65.2142 26.61 66.5955 23.9227 66.8323C23.2714 66.8952 22.5991 66.9036 21.912 66.9036C21.6473 66.9036 21.3805 66.9015 21.1137 66.9015L20.601 66.9057C18.7143 66.9225 16.8275 66.9434 14.9408 66.9686L12.0582 67.0021H11.6905C11.0854 67.0168 10.4824 66.9539 9.89413 66.8177C9.66302 66.7632 9.44662 66.6542 9.26383 66.4991C9.13356 66.3796 9.06213 66.2056 9.07473 66.0296V66.0212C9.09574 65.6963 9.17558 65.3756 9.31215 65.078C9.45922 64.728 9.64831 64.3717 9.81219 64.0615L10.1631 63.441L17.4326 50.2573C20.1822 45.1431 22.9317 40.0289 25.6813 34.9148C25.7485 34.7932 25.759 34.6465 25.7128 34.4956C25.6666 34.3446 25.5657 34.2587 25.4355 34.2063C21.9141 32.7706 19.0063 29.7985 16.5859 26.8075C13.365 22.7078 10.5013 18.3397 8.02842 13.7558L4.70248 7.44274L3.18133 4.89403C2.83887 4.36165 2.47118 3.84604 2.07619 3.35139C1.87659 3.09568 1.64548 2.86931 1.45218 2.65971C1.29248 2.50141 1.16542 2.31343 1.0782 2.10637C1.02988 1.96804 1.00256 1.82342 0.998362 1.6767C0.989958 1.55932 1.02778 1.44614 1.10341 1.35182C1.29237 1.18051 1.53048 1.07274 1.78415 1.04371C2.17808 0.975022 2.5777 0.944141 2.97753 0.95149L4.11209 0.968259C5.89937 0.965464 7.68525 0.962668 9.46973 0.959873C10.7191 0.959873 11.9693 0.959176 13.2201 0.957779H13.2348C14.6488 1.02066 16.0186 1.46081 17.1994 2.24052C18.4367 3.02497 19.6061 3.91116 20.6955 4.88984C22.6756 6.68157 24.4795 8.65798 26.0826 10.7921C26.1939 10.9325 26.3704 11.0017 26.5448 10.9724C26.7192 10.943 26.8684 10.8257 26.9293 10.658C27.5303 9.0567 28.2552 7.50448 29.0976 6.01538L29.106 5.99861C30.1103 4.01372 32.142 2.08961 34.2808 1.65574C34.8682 1.54665 35.4652 1.49749 36.0625 1.50902L37.9114 1.53836H39.4178H45.9521L47.801 1.50902C48.3976 1.49734 48.9939 1.5465 49.5805 1.65574C51.7194 2.08961 53.7532 4.01162 54.7575 5.99861L54.7659 6.01538C55.6076 7.50483 56.3325 9.05699 56.9342 10.658C56.9972 10.8257 57.1443 10.9472 57.3186 10.9724C57.493 10.9975 57.6758 10.9305 57.7809 10.7921C59.3835 8.65824 61.1867 6.68185 63.1658 4.88984C64.2571 3.91165 65.4279 3.0255 66.6661 2.24052C67.8469 1.465 69.2168 1.02066 70.6308 0.957779H70.6434C71.8928 0.957779 73.1436 0.958476 74.3958 0.959873C76.1803 0.962668 77.9676 0.965464 79.7577 0.968259H79.7955L80.888 0.95149C81.3923 0.93053 81.9007 0.989217 82.3903 1.12755C82.5307 1.1697 82.6579 1.24689 82.7601 1.35182C82.8347 1.44303 82.8715 1.55927 82.863 1.6767C82.8584 1.82313 82.8314 1.96801 82.7832 2.10637V2.13362ZM83.5059 0.741891C83.1782 0.400246 82.7432 0.175978 82.2747 0.113099C81.8167 0.0292594 81.3503 -0.00637317 80.888 0.00201075L79.7535 0.0187794C77.9648 0.0159847 76.1768 0.0131887 74.3895 0.0103941C73.1373 0.0103941 71.8683 0.00620241 70.6371 0.00620241H70.6392H70.6245C69.0314 0.0674605 67.4851 0.560163 66.1514 1.43147C64.8656 2.24471 63.6302 3.16275 62.5166 4.15624C60.6927 5.79114 59.0244 7.59087 57.533 9.53243C56.9762 8.16585 56.3354 6.83491 55.6147 5.55007C54.4528 3.17323 52.3245 1.40841 49.7696 0.708356C49.1393 0.582597 48.4544 0.528102 47.7905 0.540678L45.9416 0.570021H44.4351H41.9223H39.4094H37.8967C37.3189 0.570021 36.6928 0.540678 36.052 0.540678C35.386 0.528102 34.722 0.582597 34.0686 0.708356C31.5054 1.41261 29.377 3.18161 28.2172 5.56684C27.4987 6.84958 26.8621 8.17424 26.3053 9.53453C24.8146 7.59235 23.1462 5.79255 21.3217 4.15834C20.1871 3.14388 18.9748 2.22585 17.6911 1.43356C16.3573 0.562257 14.811 0.0695573 13.218 0.00829924H13.1907L9.45082 0.0124909C7.66354 0.0152855 5.87766 0.0180796 4.09318 0.0208742H4.05746C3.76962 0.0208742 3.37883 0.00410758 2.96493 0.00410758C2.34417 -0.0195433 1.72375 0.0590621 1.12862 0.236762C0.826024 0.335209 0.554437 0.510773 0.340737 0.746083C0.113417 1.01542 -0.00760311 1.35823 0.000370316 1.71023C0.00482995 1.95836 0.047344 2.20435 0.126433 2.43964C0.255671 2.77795 0.45221 3.08667 0.704216 3.34719L1.2841 3.98647C1.65809 4.45387 2.00896 4.94224 2.33462 5.44737L3.83686 7.96254L7.15649 14.2505C9.65806 18.8853 12.5526 23.2981 15.8085 27.4405C18.1617 30.3371 21.0107 33.2841 24.5593 34.8938C21.884 39.8543 19.2227 44.8176 16.5754 49.7836L8.94867 63.6171L8.4066 64.7175C8.21751 65.1325 8.11246 65.5769 8.09565 66.0338V66.0547C8.09378 66.2728 8.13683 66.489 8.22212 66.6898C8.30741 66.8906 8.43313 67.0718 8.5915 67.2222C9.04742 67.5995 9.60419 67.8363 10.1925 67.8992C10.6883 67.9684 11.1905 68.004 11.6926 67.9956H12.0666L20.6178 67.8971L21.1221 67.895H21.9204L24.0257 67.8175C26.9965 67.5555 29.709 66.0254 31.4633 63.6213L31.8835 62.9862L39.1531 51.1858L41.044 48.1844L41.9412 46.7801L42.8362 48.1844L44.7272 51.1858L49.1267 58.3667L51.2593 61.8125L51.9946 62.9862L52.4106 63.6213C53.2787 64.8096 54.3914 65.799 55.6742 66.5231C56.957 67.2471 58.3802 67.6892 59.8483 67.8196C60.5484 67.8791 61.2509 67.9049 61.9535 67.8971H62.7519L63.2562 67.8992L71.8116 67.9977H72.1856C72.8789 68.0145 73.5722 67.939 74.2509 67.7755C74.6354 67.6791 74.9925 67.4884 75.2888 67.2243C75.6144 66.9183 75.793 66.4907 75.7867 66.0443V66.0338C75.7696 65.5784 75.664 65.1307 75.4758 64.7154C75.3035 64.3025 75.0976 63.9189 74.9295 63.6129L74.5639 62.9674L67.307 49.8046C64.6386 44.8441 61.9689 39.8808 59.2978 34.9148C62.8486 33.305 65.6913 30.3581 68.0465 27.4615C71.3036 23.319 74.1996 18.9063 76.7028 14.2714L80.0224 7.9835L81.5247 5.46833C81.8491 4.96444 82.1982 4.47688 82.571 4.00743V4.01162C82.7054 3.83766 82.9281 3.61758 83.1529 3.37025C83.4052 3.1107 83.6018 2.80262 83.7307 2.46479C83.8106 2.23004 83.8526 1.98271 83.8568 1.73119C83.8652 1.37907 83.7433 1.03533 83.5164 0.767043L83.5059 0.741891Z" fill="black"/>
  <path d="M153.307 13.6198C151.143 14.7516 150.338 16.6589 150.338 21.9324C151.132 21.2198 152.054 20.6602 153.059 20.2892C154.05 19.9156 154.985 19.4086 155.838 18.7822C157.666 17.447 157.948 15.7262 157.948 12.8296C157.948 12.8296 154.969 12.7457 153.305 13.6177" fill="black"/>
  <path d="M140.48 14.8521C139.352 15.9491 138.561 17.3445 138.2 18.8743L132.359 41.4417L127.502 22.9719C127.029 21.008 126.178 18.5809 124.829 16.9397C123.111 14.8479 119.619 14.718 119.245 14.718C118.871 14.718 115.379 14.8479 113.66 16.9397C112.311 18.5809 111.458 21.0059 110.985 22.9719L106.153 41.4417L100.312 18.8743C99.9535 17.3436 99.1632 15.9472 98.0347 14.85C95.1773 12.3348 90.887 12.8735 90.887 12.8735L102.069 55.0488C102.069 55.0488 105.758 55.3129 107.603 54.3739C110.027 53.1415 111.181 52.1899 112.649 46.4511L117.955 25.2398C118.123 24.7116 118.337 23.4477 119.268 23.4477C120.219 23.4477 120.415 24.7095 120.581 25.2398C120.917 26.2878 124.579 41.3369 125.886 46.4511C127.352 52.1878 128.508 53.1415 130.928 54.3739C132.773 55.3129 136.463 55.0488 136.463 55.0488L147.64 12.8735C147.64 12.8735 143.354 12.3348 140.492 14.85L140.48 14.8521ZM157.962 19.7399C157.347 20.5529 156.564 21.2247 155.666 21.7102C154.641 22.2803 153.657 22.668 152.603 23.1732C150.834 24.0199 150.355 24.9631 150.355 26.401V55.0321C150.355 55.0321 153.176 55.3884 155.019 54.4494C157.393 53.2421 157.96 52.0767 157.96 46.8326L157.962 19.7399ZM185.814 34.0639L200 13.0139C200 13.0139 194.012 11.9974 191.05 14.6907C189.563 16.1701 188.218 17.7839 187.03 19.5115L181.811 27.0193C181.736 27.2553 181.588 27.4615 181.388 27.6084C181.188 27.7552 180.946 27.8351 180.698 27.8367C180.187 27.8367 179.738 27.5076 179.584 26.9983L174.38 19.5303C173.193 17.8033 171.848 16.1894 170.361 14.7096C167.419 12.0184 161.41 13.0328 161.41 13.0328L175.596 34.0827L161.446 55.0677C161.446 55.0677 167.682 55.8516 170.644 53.1813C172.044 51.8079 173.295 50.2919 174.378 48.6582L179.599 41.1504C179.674 40.9143 179.823 40.7081 180.023 40.5613C180.223 40.4145 180.464 40.3345 180.712 40.333C181.223 40.333 181.673 40.662 181.826 41.1713L187.045 48.6791C188.18 50.3035 189.467 51.8168 190.89 53.2023C193.831 55.8935 199.981 55.0886 199.981 55.0886L185.833 34.1037" fill="black"/>
</symbol>
<symbol id='salesforce' viewBox="0 0 270 180" fill="none">
<rect width="270" height="180" rx="8" fill="#E6E6E6"/>
<mask id="mask0_19296_277" style="mask-type:alpha" maskUnits="userSpaceOnUse" x="35" y="20" width="200" height="140">
<path d="M35 20H235V160H35V20Z" fill="white"/>
</mask>
<g mask="url(#mask0_19296_277)">
<path fill-rule="evenodd" clip-rule="evenodd" d="M118.044 35.3263C124.5 28.5916 133.485 24.4211 143.412 24.4211C156.647 24.4211 168.118 31.7895 174.294 42.7684C179.777 40.3124 185.715 39.0443 191.721 39.0474C215.544 39.0474 234.882 58.5737 234.882 82.6684C234.882 106.763 215.544 126.289 191.721 126.289C188.809 126.289 185.971 125.996 183.191 125.442C177.787 135.095 167.456 141.653 155.691 141.653C150.901 141.662 146.173 140.573 141.868 138.469C136.39 151.364 123.632 160.427 108.78 160.427C93.2648 160.427 80.1031 150.627 75.0295 136.848C72.7714 137.326 70.4697 137.566 68.1619 137.565C49.706 137.565 34.7795 122.386 34.7795 103.744C34.7795 91.2173 41.5001 80.312 51.4707 74.4173C49.3555 69.5342 48.2667 64.2669 48.2722 58.9436C48.2722 37.4278 65.6987 20.0383 87.1693 20.0383C99.7428 20.0383 110.993 26.0436 118.052 35.3646" fill="black"/>
<path fill-rule="evenodd" clip-rule="evenodd" d="M63.9266 92.8001C63.8008 93.1287 63.9714 93.1972 64.0119 93.2554C64.3876 93.5281 64.7692 93.7255 65.1516 93.9473C67.1957 95.0305 69.1222 95.3473 71.1369 95.3473C75.2398 95.3473 77.7913 93.1589 77.7913 89.6368V89.5675C77.7913 86.3107 74.9089 85.1244 72.2178 84.277L71.8655 84.1628C69.8288 83.5011 68.0714 82.9249 68.0714 81.5839V81.5153C68.0714 80.3659 69.1008 79.5185 70.6891 79.5185C72.4538 79.5185 74.5567 80.1072 75.9023 80.8522C75.9023 80.8522 76.3008 81.1101 76.4457 80.7247C76.5244 80.5162 77.2104 78.6763 77.2839 78.47C77.3619 78.2541 77.2251 78.0912 77.0847 78.0072C75.5405 77.0641 73.4082 76.423 71.2023 76.423L70.7928 76.4245C67.0354 76.4245 64.4104 78.7013 64.4104 81.9582V82.0282C64.4104 85.4619 67.3075 86.5819 70.0133 87.3555L70.4486 87.4911C72.4192 88.0983 74.1251 88.6258 74.1251 90.0111V90.0804C74.1251 91.3551 73.0148 92.3056 71.2354 92.3056C70.5435 92.3056 68.3383 92.2938 65.9486 90.7804C65.6597 90.6116 65.495 90.4901 65.2722 90.3537C65.1545 90.2823 64.8604 90.1533 64.7325 90.5394L63.9236 92.7942L63.9266 92.8001ZM123.997 92.7942C123.871 93.1228 124.042 93.1913 124.084 93.2495C124.458 93.5222 124.841 93.7196 125.224 93.9414C127.268 95.0246 129.194 95.3414 131.209 95.3414C135.312 95.3414 137.863 93.153 137.863 89.6309V89.5616C137.863 86.3048 134.988 85.1185 132.29 84.2711L131.938 84.1569C129.901 83.4952 128.143 82.919 128.143 81.578V81.5094C128.143 80.36 129.173 79.5126 130.761 79.5126C132.526 79.5126 134.621 80.1013 135.974 80.8463C135.974 80.8463 136.373 81.1042 136.518 80.7188C136.596 80.5103 137.283 78.6704 137.349 78.4641C137.428 78.2482 137.291 78.0853 137.151 78.0013C135.607 77.0582 133.474 76.4171 131.268 76.4171L130.858 76.4186C127.101 76.4186 124.476 78.6954 124.476 81.9523V82.0223C124.476 85.456 127.373 86.576 130.079 87.3496L130.513 87.4852C132.491 88.0924 134.19 88.62 134.19 90.0052V90.0745C134.19 91.3492 133.08 92.2997 131.3 92.2997C130.607 92.2997 128.396 92.288 126.013 90.7745C125.724 90.6057 125.555 90.4893 125.336 90.3479C125.262 90.3007 124.916 90.1651 124.797 90.5335L123.988 92.7883L123.997 92.7942ZM165.018 85.8914C165.018 87.8809 164.647 89.4504 163.922 90.563C163.199 91.6609 162.106 92.1988 160.584 92.1988C159.062 92.1988 157.974 91.6653 157.26 90.5704C156.542 89.4651 156.18 87.8883 156.18 85.8988C156.18 83.9093 156.544 82.3472 157.26 81.2493C157.972 80.1588 159.055 79.6356 160.584 79.6356C162.113 79.6356 163.202 80.164 163.922 81.2493C164.652 82.3472 165.018 83.9093 165.018 85.8988V85.8914ZM168.444 82.2072C168.107 81.0651 167.584 80.063 166.885 79.223C166.186 78.383 165.305 77.7051 164.253 77.2188C163.209 76.7288 161.974 76.482 160.577 76.482C159.18 76.482 157.952 76.7303 156.9 77.2188C155.856 77.7081 154.966 78.383 154.268 79.223C153.571 80.063 153.047 81.0651 152.709 82.2072C152.374 83.342 152.205 84.5798 152.205 85.8988C152.205 87.2177 152.374 88.4556 152.709 89.5904C153.045 90.7325 153.569 91.7346 154.268 92.5746C154.967 93.4146 155.856 94.0851 156.9 94.5641C157.952 95.0415 159.187 95.2847 160.577 95.2847C161.966 95.2847 163.202 95.0415 164.246 94.5641C165.29 94.0866 166.18 93.4146 166.878 92.5746C167.576 91.7346 168.099 90.7325 168.437 89.5904C168.771 88.4556 168.941 87.2177 168.941 85.8988C168.941 84.5872 168.771 83.342 168.437 82.2072H168.444ZM196.599 91.6388C196.486 91.305 196.161 91.431 196.161 91.431C195.663 91.6219 195.132 91.7987 194.566 91.8871C193.995 91.977 193.36 92.022 192.691 92.022C191.036 92.022 189.713 91.5275 188.771 90.5483C187.823 89.5683 187.293 87.9914 187.301 85.8546C187.306 83.9093 187.775 82.4504 188.617 81.3304C189.448 80.2251 190.727 79.6504 192.419 79.6504C193.83 79.6504 194.911 79.8147 196.044 80.1698C196.044 80.1698 196.312 80.287 196.441 79.9326C196.741 79.1 196.963 78.5031 197.286 77.5894C197.377 77.3278 197.154 77.2173 197.072 77.1856C196.628 77.0117 195.58 76.7266 194.785 76.6065C194.043 76.493 193.182 76.4341 192.212 76.4341C190.771 76.4341 189.491 76.6809 188.396 77.1702C187.3 77.6587 186.374 78.3344 185.638 79.1744C184.903 80.0144 184.344 81.0165 183.969 82.1586C183.598 83.2933 183.41 84.5386 183.41 85.8575C183.41 88.7017 184.175 91.0081 185.69 92.6954C187.205 94.3902 189.484 95.2449 192.455 95.2449C194.212 95.2449 196.013 94.889 197.307 94.3754C197.307 94.3754 197.555 94.2561 197.447 93.9672L196.602 91.6388H196.599ZM202.594 83.9756C202.758 82.8704 203.06 81.9493 203.535 81.2346C204.246 80.1441 205.33 79.5472 206.852 79.5472C208.374 79.5472 209.381 80.147 210.102 81.2346C210.58 81.953 210.788 82.9072 210.866 83.9756L202.557 83.9742L202.594 83.9756ZM214.138 81.5441C213.846 80.4462 213.124 79.3335 212.653 78.8251C211.903 78.022 211.175 77.4546 210.447 77.1451C209.396 76.6973 208.266 76.4674 207.124 76.4694C205.675 76.4694 204.359 76.7148 203.293 77.2136C202.227 77.7162 201.33 78.4 200.624 79.2547C199.919 80.1094 199.388 81.1189 199.05 82.2757C198.712 83.4178 198.541 84.6705 198.541 85.9821C198.541 87.3231 198.718 88.5684 199.067 89.6957C199.419 90.8305 199.986 91.8252 200.751 92.6505C201.516 93.4831 202.493 94.1315 203.67 94.5884C204.839 95.0415 206.258 95.2766 207.883 95.2714C211.236 95.2604 213.001 94.5125 213.721 94.1072C213.85 94.035 213.971 93.9105 213.82 93.5516L213.063 91.4222C212.946 91.1046 212.626 91.2195 212.626 91.2195C211.795 91.5305 210.618 92.089 207.861 92.0816C206.06 92.0787 204.729 91.546 203.891 90.7111C203.038 89.8564 202.611 88.6111 202.545 86.8427L214.163 86.8515C214.163 86.8515 214.468 86.8486 214.5 86.5494C214.513 86.4256 214.898 84.1621 214.154 81.5463L214.138 81.5441ZM109.727 83.9756C109.891 82.8704 110.193 81.9493 110.668 81.2346C111.38 80.1441 112.462 79.5472 113.984 79.5472C115.506 79.5472 116.513 80.147 117.234 81.2346C117.711 81.953 117.92 82.9072 117.999 83.9756L109.69 83.9742L109.727 83.9756ZM121.271 81.5441C120.98 80.4462 120.256 79.3335 119.785 78.8251C119.035 78.022 118.307 77.4546 117.58 77.1451C116.529 76.6973 115.398 76.4674 114.256 76.4694C112.807 76.4694 111.491 76.7148 110.425 77.2136C109.359 77.7162 108.462 78.4 107.756 79.2547C107.052 80.1094 106.521 81.1189 106.182 82.2757C105.845 83.4178 105.675 84.6705 105.675 85.9821C105.675 87.3231 105.851 88.5684 106.202 89.6957C106.553 90.8305 107.121 91.8252 107.878 92.6505C108.643 93.4831 109.621 94.1315 110.797 94.5884C111.966 95.0415 113.378 95.2766 115.01 95.2714C118.363 95.2604 120.128 94.5125 120.849 94.1072C120.977 94.035 121.099 93.9105 120.946 93.5516L120.189 91.4222C120.072 91.1046 119.752 91.2195 119.752 91.2195C118.921 91.5305 117.744 92.089 114.987 92.0816C113.193 92.0787 111.855 91.546 111.016 90.7111C110.163 89.8564 109.737 88.6111 109.671 86.8427L121.288 86.8515C121.288 86.8515 121.594 86.8486 121.626 86.5494C121.638 86.4256 122.024 84.1621 121.279 81.5463L121.271 81.5441ZM84.653 91.5651C84.1979 91.2011 84.1347 91.112 83.9839 90.8754C83.7538 90.5195 83.6361 90.0133 83.6361 89.3649C83.6361 88.3481 83.9744 87.6112 84.6729 87.1175C84.6655 87.119 85.6729 86.2481 88.0406 86.2775C89.0944 86.2964 90.1458 86.3863 91.1876 86.5465V91.8296H91.1891C91.1891 91.8296 89.7185 92.1472 88.0567 92.2474C85.6964 92.3896 84.6523 91.5666 84.6597 91.5688L84.653 91.5651ZM89.2707 83.3862C88.8001 83.3515 88.1898 83.3346 87.4619 83.3346C86.4692 83.3346 85.506 83.4584 84.6089 83.7015C83.7045 83.9462 82.8883 84.3249 82.1898 84.8289C81.4894 85.3297 80.9132 85.9852 80.506 86.7447C80.095 87.511 79.8854 88.41 79.8854 89.4268C79.8854 90.4584 80.0641 91.35 80.417 92.0794C80.7629 92.803 81.2835 93.4286 81.9317 93.8994C82.5766 94.3695 83.3729 94.7173 84.292 94.9236C85.2038 95.1322 86.2332 95.2375 87.3656 95.2375C88.5567 95.2375 89.7406 95.1373 90.8876 94.9435C91.8646 94.7747 92.8378 94.585 93.8067 94.3747C94.1935 94.2855 94.6229 94.1684 94.6229 94.1684C94.9097 94.0954 94.8876 93.7882 94.8876 93.7882L94.881 83.1776C94.881 80.8492 94.2604 79.1176 93.0354 78.0492C91.8148 76.9808 90.0281 76.4429 87.7119 76.4429C86.8442 76.4429 85.4398 76.5608 84.6016 76.7295C84.6016 76.7295 82.0722 77.2217 81.0281 78.0411C81.0281 78.0411 80.7986 78.1826 80.9236 78.5031L81.7472 80.7136C81.8494 81.0003 82.128 80.9023 82.128 80.9023C82.128 80.9023 82.2156 80.8676 82.3185 80.8065C84.5464 79.5907 87.37 79.6275 87.37 79.6275C88.62 79.6275 89.5905 79.8817 90.2376 80.3791C90.8707 80.8662 91.1935 81.6023 91.1935 83.1496V83.6411C90.2008 83.4967 89.2817 83.4134 89.2817 83.4134L89.2707 83.3862ZM182.653 77.3956C182.67 77.3568 182.679 77.3149 182.679 77.2726C182.679 77.2303 182.671 77.1884 182.655 77.1493C182.638 77.1103 182.614 77.0749 182.584 77.0453C182.554 77.0157 182.518 76.9925 182.479 76.9771C182.281 76.902 181.295 76.6934 180.538 76.6463C179.082 76.5549 178.273 76.801 177.545 77.1282C176.826 77.4531 176.03 77.9755 175.589 78.5797L175.588 77.165C175.588 76.9705 175.45 76.8135 175.255 76.8135H172.284C172.091 76.8135 171.952 76.9705 171.952 77.165V94.4808C171.952 94.5743 171.989 94.664 172.055 94.7302C172.121 94.7963 172.21 94.8335 172.304 94.8337H175.348C175.441 94.8335 175.531 94.7963 175.596 94.7301C175.662 94.6639 175.699 94.5743 175.699 94.4808V85.7861C175.699 84.6218 175.827 83.465 176.082 82.7355C176.334 82.0142 176.676 81.4387 177.097 81.0261C177.499 80.6275 177.991 80.3318 178.531 80.164C179.038 80.0182 179.563 79.9443 180.09 79.9444C180.696 79.9444 181.362 80.1006 181.362 80.1006C181.585 80.1256 181.71 79.9886 181.785 79.7867C181.985 79.2554 182.55 77.6646 182.66 77.3477" fill="#FFFFFE"/>
<path fill-rule="evenodd" clip-rule="evenodd" d="M154.221 69.4037C153.845 69.2897 153.462 69.1987 153.075 69.131C152.554 69.0439 152.027 69.003 151.499 69.0087C149.401 69.0087 147.747 69.6026 146.586 70.7757C145.433 71.9399 144.649 73.7134 144.255 76.047L144.113 76.8347H141.48C141.48 76.8347 141.159 76.8214 141.091 77.1729L140.659 79.5898C140.629 79.8211 140.728 79.9655 141.037 79.9641H143.6L140.999 94.5116C140.796 95.6831 140.563 96.6469 140.305 97.3771C140.05 98.0978 139.802 98.6379 139.496 99.0299C139.199 99.4093 138.918 99.6886 138.434 99.8514C138.034 99.9863 137.574 100.048 137.069 100.048C136.788 100.048 136.415 100.001 136.139 99.9458C135.863 99.8912 135.72 99.8293 135.513 99.7424C135.513 99.7424 135.213 99.6274 135.094 99.9296C134.998 100.176 134.315 102.059 134.234 102.292C134.152 102.522 134.267 102.703 134.413 102.755C134.754 102.878 135.007 102.956 135.472 103.066C136.118 103.218 136.662 103.228 137.171 103.228C138.239 103.228 139.212 103.077 140.018 102.786C140.83 102.492 141.537 101.979 142.162 101.286C142.838 100.538 143.263 99.7549 143.669 98.6865C144.071 97.6277 144.414 96.3131 144.688 94.7812L147.302 79.9641H151.122C151.122 79.9641 151.444 79.9759 151.511 79.6259L151.943 77.209C151.974 76.9777 151.875 76.8332 151.565 76.8347H147.857C147.875 76.7507 148.043 75.4435 148.469 74.213C148.651 73.6877 148.993 73.264 149.282 72.9729C149.553 72.6957 149.886 72.488 150.254 72.3672C150.657 72.2424 151.077 72.1817 151.499 72.1874C151.848 72.1874 152.191 72.2294 152.452 72.284C152.811 72.3606 152.951 72.4011 153.045 72.4291C153.423 72.5448 153.474 72.4328 153.548 72.2493L154.435 69.8089C154.526 69.5466 154.304 69.4361 154.221 69.4037ZM102.402 94.5425C102.402 94.737 102.264 94.8954 102.07 94.8954H98.9942C98.7994 94.8954 98.6611 94.737 98.6611 94.5425V69.7345C98.6611 69.5407 98.7994 69.3838 98.9942 69.3838H102.07C102.264 69.3838 102.402 69.5407 102.402 69.7345V94.5425Z" fill="#FFFFFE"/>
</g>
</symbol>
</symbol>
<symbol id='soundcloud' viewBox="0 0 200 114" fill="none">
  <path d="M2.26503 51.9437C1.84771 51.9437 1.51649 52.2664 1.46253 52.7266L0 63.8349L1.46253 74.7519C1.51649 75.212 1.84751 75.5325 2.26503 75.5325C2.66921 75.5325 2.99842 75.2143 3.06289 74.756L4.79642 63.8347L3.06289 52.7243C3.00044 52.2662 2.66719 51.9437 2.26503 51.9437ZM10.4899 45.8745C10.421 45.3972 10.0791 45.068 9.65751 45.068C9.23372 45.068 8.8831 45.4079 8.8251 45.8745C8.8251 45.8787 6.85916 63.8349 6.85916 63.8349L8.8251 81.3975C8.88107 81.8685 9.2317 82.2084 9.65751 82.2084C10.0768 82.2084 10.419 81.8772 10.4877 81.402L12.7244 63.8349L10.4899 45.8745ZM41.4712 29.3077C40.6647 29.3077 39.9978 29.9679 39.9592 30.8067L38.3934 63.8499L39.9592 85.2042C40 86.0385 40.6647 86.6967 41.4712 86.6967C42.2735 86.6967 42.9382 86.0363 42.9855 85.1999V85.2064L44.7556 63.8499L42.9855 30.8067C42.938 29.9679 42.2733 29.3077 41.4712 29.3077ZM25.4363 40.7923C24.8169 40.7923 24.3115 41.287 24.2618 41.9472L22.4981 63.8412L24.2618 85.0233C24.3091 85.6792 24.8167 86.1739 25.4363 86.1739C26.0493 86.1739 26.5547 85.6792 26.6087 85.0233L28.6132 63.8412L26.6087 41.9427C26.5547 41.287 26.0493 40.7923 25.4363 40.7923ZM57.7664 86.6946C58.7665 86.6946 59.5796 85.888 59.6204 84.8556L61.1563 63.8606L59.6226 19.868C59.5818 18.8356 58.7686 18.0292 57.7686 18.0292C56.7598 18.0292 55.9448 18.8379 55.9122 19.8703L54.5507 63.8584L55.9122 84.862C55.9445 85.886 56.7596 86.6946 57.7664 86.6946ZM91.1265 86.7937C92.5032 86.7937 93.6389 85.6602 93.6646 84.2665L94.7358 63.8735L93.6644 13.0654C93.6407 11.674 92.5029 10.5385 91.1263 10.5385C89.7476 10.5385 88.6099 11.672 88.5882 13.0677L87.6311 63.8563C87.6311 63.8887 88.5882 84.2793 88.5882 84.2793C88.6101 85.66 89.7499 86.7937 91.1265 86.7937ZM74.3194 86.7141C75.5176 86.7141 76.4832 85.7526 76.5156 84.5268V84.5418L77.8188 63.865L76.5133 19.5542C76.481 18.3282 75.5154 17.3692 74.3172 17.3692C73.1105 17.3692 72.1449 18.3284 72.1191 19.5542L70.9599 63.8673L72.1213 84.5397C72.1472 85.7526 73.1128 86.7141 74.3194 86.7141ZM33.4226 86.5205C34.1345 86.5205 34.7111 85.9504 34.7648 85.1999L36.6534 63.8414L34.7648 43.5237C34.7133 42.7732 34.1369 42.2074 33.4226 42.2074C32.7001 42.2074 32.1235 42.7773 32.0785 43.5324L30.4157 63.8414L32.0785 85.1979C32.1257 85.9504 32.6999 86.5205 33.4226 86.5205ZM17.5148 85.3505C18.0352 85.3505 18.4567 84.9397 18.517 84.3718L20.6377 63.8369L18.519 42.5279C18.4565 41.9581 18.035 41.5471 17.5146 41.5471C16.9875 41.5471 16.566 41.9601 16.5122 42.5279L14.6453 63.8369L16.5122 84.3676C16.564 84.9374 16.9855 85.3505 17.5148 85.3505ZM82.6908 18.8165C81.3896 18.8165 80.3462 19.8511 80.3205 21.1759L79.2624 63.8693L80.3205 84.4126C80.3464 85.7203 81.3874 86.7549 82.6908 86.7549C83.9899 86.7549 85.0268 85.7225 85.0567 84.3977V84.4149L86.244 63.8715L85.0567 21.1714C85.0266 19.8511 83.9897 18.8165 82.6908 18.8165ZM49.5886 86.7377C50.4877 86.7377 51.2298 86.0042 51.2728 85.0686L52.9247 63.8561L51.2728 23.2554C51.2276 22.3176 50.4877 21.5865 49.5886 21.5865C48.681 21.5865 47.9412 22.3198 47.9023 23.2554L46.4398 63.8561L47.9046 85.0773C47.941 86.0042 48.6808 86.7377 49.5886 86.7377ZM68.0346 84.7354V84.7244L69.4541 63.8628L68.0346 18.3885C68.0001 17.2595 67.1096 16.3734 66.0105 16.3734C64.9048 16.3734 64.0144 17.2573 63.9845 18.3885L62.7241 63.8606L63.9865 84.7331C64.0167 85.8514 64.9073 86.7353 66.0107 86.7353C67.1119 86.7353 67.998 85.8514 68.0348 84.7267L68.0346 84.7354ZM175.402 37.6501C172.032 37.6501 168.816 38.3319 165.887 39.5599C163.929 17.3906 145.337 0 122.658 0C117.109 0 111.7 1.09261 106.923 2.93996C105.066 3.65833 104.572 4.39812 104.554 5.83264V83.9028C104.574 85.4083 105.742 86.6621 107.211 86.8106C107.273 86.8171 174.961 86.8515 175.4 86.8515C188.985 86.8515 200 75.8377 200 62.2519C200 48.6659 188.987 37.6501 175.402 37.6501ZM99.5256 5.76394C98.0479 5.76394 96.835 6.97698 96.8133 8.46727L95.7035 63.88L96.8156 83.9911C96.835 85.4602 98.0481 86.671 99.5256 86.671C100.999 86.671 102.212 85.4602 102.233 83.9697V83.9933L103.44 63.88L102.233 8.46303C102.212 6.97698 100.999 5.76394 99.5256 5.76394ZM19.8657 102.489C16.9556 101.805 16.1683 101.44 16.1683 100.287C16.1683 99.4742 16.8242 98.6331 18.7902 98.6331C20.47 98.6331 21.7821 99.3147 22.9609 100.521L25.6087 97.9536C23.8774 96.1448 21.7801 95.0694 18.9238 95.0694C15.3017 95.0694 12.3657 97.1148 12.3657 100.446C12.3657 104.063 14.7276 105.139 18.1087 105.924C21.5693 106.709 22.1997 107.236 22.1997 108.417C22.1997 109.806 21.1736 110.41 19.0012 110.41C17.244 110.41 15.5921 109.808 14.306 108.309L11.6578 110.671C13.0472 112.716 15.7251 114 18.79 114C23.8016 114 26.004 111.641 26.004 108.154C26.0042 104.167 22.7778 103.171 19.8657 102.489ZM36.7585 95.0694C31.7513 95.0694 28.7894 98.9494 28.7894 104.535C28.7894 110.12 31.7511 113.998 36.7585 113.998C41.7659 113.998 44.7318 110.12 44.7318 104.535C44.7318 98.9494 41.7659 95.0694 36.7585 95.0694ZM36.7585 110.357C33.7968 110.357 32.5621 107.812 32.5621 104.537C32.5621 101.259 33.7966 98.7148 36.7585 98.7148C39.7246 98.7148 40.9549 101.259 40.9549 104.537C40.9549 107.812 39.7246 110.357 36.7585 110.357ZM59.5494 105.664C59.5494 108.599 58.1041 110.41 55.7726 110.41C53.4388 110.41 52.0234 108.548 52.0234 105.612V95.3555H48.3498V105.664C48.3498 111.011 51.3417 114 55.7724 114C60.4398 114 63.2208 110.931 63.2208 105.612V95.3555H59.5494V105.664ZM79.0579 103.12C79.0579 104.143 79.1094 106.449 79.1094 107.131C78.8729 106.657 78.2707 105.741 77.8253 105.057L71.319 95.3535H67.8065V113.712H71.4265V105.634C71.4265 104.61 71.3748 102.304 71.3748 101.623C71.6092 102.094 72.2157 103.012 72.6589 103.696L79.3996 113.712H82.6775V95.3533H79.0577L79.0579 103.12ZM93.1397 95.3555H87.3969V113.714H92.875C97.5962 113.714 102.266 110.985 102.266 104.535C102.266 97.8202 98.3836 95.3555 93.1397 95.3555ZM92.875 110.148H91.0685V98.9235H93.0086C96.8909 98.9235 98.4913 100.784 98.4913 104.535C98.4911 107.892 96.7317 110.148 92.875 110.148ZM113.62 98.7128C115.272 98.7128 116.322 99.4483 116.978 100.706L120.387 99.1343C119.232 96.749 117.133 95.0694 113.672 95.0694C108.877 95.0694 105.518 98.9494 105.518 104.535C105.518 110.329 108.742 113.998 113.54 113.998C116.872 113.998 119.075 112.452 120.333 109.855L117.24 108.019C116.27 109.647 115.298 110.355 113.646 110.355C110.893 110.355 109.292 107.836 109.292 104.535C109.291 101.128 110.869 98.7128 113.62 98.7128ZM127.237 95.3555H123.566V113.714H134.6V110.092H127.237V95.3555ZM144.272 95.0694C139.261 95.0694 136.299 98.9494 136.299 104.535C136.299 110.12 139.261 113.998 144.272 113.998C149.28 113.998 152.244 110.12 152.244 104.535C152.244 98.9494 149.28 95.0694 144.272 95.0694ZM144.272 110.357C141.306 110.357 140.076 107.812 140.076 104.537C140.076 101.259 141.306 98.7148 144.272 98.7148C147.232 98.7148 148.464 101.259 148.464 104.537C148.464 107.812 147.232 110.357 144.272 110.357ZM167.059 105.664C167.059 108.599 165.62 110.41 163.286 110.41C160.948 110.41 159.535 108.548 159.535 105.612V95.3555H155.864V105.664C155.864 111.011 158.854 114 163.286 114C167.954 114 170.733 110.931 170.733 105.612V95.3555H167.059V105.664ZM181.064 95.3555H175.323V113.714H180.801C185.524 113.714 190.19 110.985 190.19 104.535C190.19 97.8202 186.309 95.3555 181.064 95.3555ZM180.801 110.148H178.992V98.9235H180.934C184.812 98.9235 186.412 100.784 186.412 104.535C186.413 107.892 184.655 110.148 180.801 110.148Z" fill="black"/>
</symbol>
</svg>
